<svg xmlns="http://www.w3.org/2000/svg"  viewBox="0 0 32 32" width="32px" height="32px"><path d="M 7 4 L 7 27.5 L 16 20.75 L 16.535156 21.152344 C 16.195249 22.038687 16 22.996496 16 24 C 16 28.406438 19.593562 32 24 32 C 28.406438 32 32 28.406438 32 24 C 32 19.932692 28.936614 16.563723 25 16.068359 L 25 4 L 7 4 z M 9 6 L 23 6 L 23 16.068359 C 20.733667 16.353543 18.761302 17.592556 17.492188 19.369141 L 16 18.25 L 9 23.5 L 9 6 z M 24 18 C 27.325562 18 30 20.674438 30 24 C 30 27.325562 27.325562 30 24 30 C 20.674438 30 18 27.325562 18 24 C 18 20.674438 20.674438 18 24 18 z M 20 23 L 20 25 L 28 25 L 28 23 L 20 23 z"/></svg>